<svg width="28" height="12" viewBox="0 0 28 12" fill="none" xmlns="http://www.w3.org/2000/svg">
<path d="M3.80921 12C6.4569 12 8.02964 9.72523 8.02964 5.87318C8.02964 4.42272 7.77714 3.20211 7.29377 2.25892C6.59397 0.792602 5.38917 0 3.86693 0C1.6016 0 0 1.67239 0 4.01849C0 6.22193 1.44288 7.82299 3.42685 7.82299C4.64608 7.82299 5.63446 7.19683 6.12504 6.11096H6.14668C6.14668 6.11096 6.17554 6.11096 6.18275 6.11096C6.19718 6.11096 6.24768 6.11096 6.24768 6.11096C6.24768 8.72655 5.34588 10.288 3.82364 10.288C2.92905 10.288 2.23647 9.74901 1.99839 8.88507H0.144288C0.454508 10.7635 1.90461 12 3.80921 12ZM3.87414 6.19815C2.67655 6.19815 1.82525 5.26288 1.82525 3.95509C1.82525 2.679 2.71983 1.7041 3.88135 1.7041C5.04287 1.7041 5.93746 2.69485 5.93746 3.98679C5.93746 5.26288 5.06452 6.19815 3.87414 6.19815Z" fill="black"/>
<path d="M11.0744 11.889C11.7598 11.889 12.2287 11.3501 12.2287 10.6367C12.2287 9.91546 11.7598 9.38441 11.0744 9.38441C10.3963 9.38441 9.92011 9.91546 9.92011 10.6367C9.92011 11.3501 10.3963 11.889 11.0744 11.889ZM11.0744 5.94452C11.7598 5.94452 12.2287 5.41347 12.2287 4.70013C12.2287 3.97886 11.7598 3.44782 11.0744 3.44782C10.3963 3.44782 9.92011 3.97886 9.92011 4.70013C9.92011 5.41347 10.3963 5.94452 11.0744 5.94452Z" fill="black"/>
<path d="M18.9817 11.7226H20.7637V9.59049H22.1705V7.86262H20.7637V0.285337H18.1376C16.2979 3.32893 14.8334 5.87318 13.8955 7.7675V9.59049H18.9817V11.7226ZM15.6198 7.79128C16.8318 5.44518 17.914 3.56671 18.9096 1.9498H19.0106V7.91017H15.6198V7.79128Z" fill="black"/>
<path d="M26.1387 11.7226H28V0.285337H26.1459L23.4261 2.37781V4.34346L26.016 2.3461H26.1387V11.7226Z" fill="black"/>
</svg>
