<svg width="67" height="12" viewBox="0 0 67 12" fill="none" xmlns="http://www.w3.org/2000/svg">
<path opacity="0.35" d="M45.0004 0.502686H61.6664C62.863 0.502686 63.8334 1.47306 63.8334 2.66968V8.66968C63.8332 9.86615 62.8629 10.8357 61.6664 10.8357H45.0004C43.8039 10.8357 42.8336 9.86615 42.8334 8.66968V2.66968C42.8334 1.47306 43.8037 0.502686 45.0004 0.502686Z" stroke="black"/>
<path opacity="0.4" d="M65.3334 3.66931V7.66931C66.1381 7.33053 66.6614 6.54244 66.6614 5.66931C66.6614 4.79618 66.1381 4.00809 65.3334 3.66931" fill="black"/>
<path d="M44.3334 3.33602C44.3334 2.59964 44.9303 2.00269 45.6667 2.00269H61C61.7364 2.00269 62.3334 2.59964 62.3334 3.33602V8.00268C62.3334 8.73906 61.7364 9.33602 61 9.33602H45.6667C44.9303 9.33602 44.3334 8.73907 44.3334 8.00269V3.33602Z" fill="black"/>
<path d="M27.4539 8.40057C28.7294 7.32168 30.5982 7.32168 31.8738 8.40057C31.9378 8.45859 31.9746 8.54074 31.9763 8.62713C31.9781 8.71359 31.9443 8.79702 31.8826 8.8576L29.8855 10.8732C29.827 10.9324 29.7471 10.966 29.6638 10.966C29.5806 10.966 29.5007 10.9324 29.4421 10.8732L27.4441 8.8576C27.3825 8.797 27.3486 8.71351 27.3503 8.62713C27.3522 8.54068 27.3897 8.45855 27.4539 8.40057ZM24.7888 5.71111C27.5369 3.15507 31.7927 3.15512 34.5408 5.71111C34.6027 5.77097 34.6384 5.85351 34.6394 5.93963C34.6403 6.02581 34.6064 6.10892 34.5457 6.1701L33.3914 7.33709C33.2724 7.45619 33.0798 7.45884 32.9578 7.34295C32.0553 6.52576 30.8813 6.07337 29.6638 6.07342C28.4471 6.07392 27.2737 6.52628 26.3718 7.34295C26.2498 7.45877 26.0572 7.45617 25.9382 7.33709L24.7839 6.1701C24.7233 6.10903 24.6894 6.02572 24.6902 5.93963C24.6911 5.8535 24.7269 5.77095 24.7888 5.71111ZM22.1238 3.02947C26.3389 -1.0097 32.9889 -1.00995 37.2039 3.02947C37.2648 3.08942 37.299 3.17156 37.2996 3.25701C37.3001 3.34257 37.2661 3.42481 37.2058 3.48553L36.0496 4.65252C35.9304 4.77199 35.7378 4.77324 35.617 4.65545C34.011 3.12872 31.8796 2.27764 29.6638 2.27752C27.4477 2.27751 25.3159 3.12856 23.7097 4.65545C23.5889 4.77344 23.3962 4.77222 23.2771 4.65252L22.1209 3.48553C22.0606 3.42476 22.0265 3.34259 22.0271 3.25701C22.0277 3.1715 22.0628 3.08939 22.1238 3.02947Z" fill="black"/>
<path d="M2 7.00293C2.55228 7.00293 3 7.45064 3 8.00293V10.0029C2.99982 10.5551 2.55218 11.0029 2 11.0029H1C0.447824 11.0029 0.000175969 10.5551 0 10.0029V8.00293C0 7.45064 0.447715 7.00293 1 7.00293H2ZM6.66699 5.00293C7.21913 5.00311 7.66699 5.45075 7.66699 6.00293V10.0029C7.66682 10.555 7.21902 11.0028 6.66699 11.0029H5.66699C5.11482 11.0029 4.66717 10.5551 4.66699 10.0029V6.00293C4.66699 5.45064 5.11471 5.00293 5.66699 5.00293H6.66699ZM11.333 2.66895C11.8852 2.66895 12.3328 3.11681 12.333 3.66895V10.0029C12.3328 10.5551 11.8852 11.0029 11.333 11.0029H10.333C9.78098 11.0028 9.33318 10.555 9.33301 10.0029V3.66895C9.33318 3.11692 9.78098 2.66912 10.333 2.66895H11.333ZM16 0.335938C16.5523 0.335937 17 0.783653 17 1.33594V10.0029C16.9998 10.5551 16.5522 11.0029 16 11.0029H15C14.4478 11.0029 14.0002 10.5551 14 10.0029V1.33594C14 0.783653 14.4477 0.335938 15 0.335938H16Z" fill="black"/>
</svg>
