<svg width="246" height="185" viewBox="0 0 246 185" fill="none" xmlns="http://www.w3.org/2000/svg">
<path d="M215.1 21.75H119.5L95.6 0H23.9C10.7551 0 0 9.7875 0 21.75V152.25C0 164.212 10.7551 174 23.9 174H215.1C228.245 174 239 164.212 239 152.25V43.5C239 31.5375 228.245 21.75 215.1 21.75Z" fill="#FFC700"/>
<path d="M228.433 125H203.567L186 142.567V167.433L203.567 185H228.433L246 167.433V142.567L228.433 125ZM232.667 167.467L228.467 171.667L216 159.2L203.533 171.667L199.333 167.467L211.8 155L199.333 142.533L203.533 138.333L216 150.8L228.467 138.333L232.667 142.533L220.2 155L232.667 167.467Z" fill="#F7032F"/>
</svg>
